PathFileType  4	(X/Y/Z) C:\Users\wagnerel85475\Documents\Thesis\opencap-core\Data\3375ffbc-daeb-4a43-b4f7-ac9899cd4c71\MarkerData\PreAugmentation
DataRate	CameraRate	NumFrames	NumMarkers	Units	OrigDataRate	OrigDataStartFrame	OrigNumFrames
60.0	60.0	14	20	m	60.0	113	301
Frame#	Time	Neck			RShoulder			RElbow			RWrist			LShoulder			LElbow			LWrist			midHip			RHip			RKnee			RAnkle			LHip			LKnee			LAnkle			LBigToe			LSmallToe			LHeel			RBigToe			RSmallToe			RHeel			
		X1	Y1	Z1	X2	Y2	Z2	X3	Y3	Z3	X4	Y4	Z4	X5	Y5	Z5	X6	Y6	Z6	X7	Y7	Z7	X8	Y8	Z8	X9	Y9	Z9	X10	Y10	Z10	X11	Y11	Z11	X12	Y12	Z12	X13	Y13	Z13	X14	Y14	Z14	X15	Y15	Z15	X16	Y16	Z16	X17	Y17	Z17	X18	Y18	Z18	X19	Y19	Z19	X20	Y20	Z20	

113	1.8666667	0.8116600	1.3217400	-0.1485500	0.8005100	1.3272700	0.0355900	0.6790100	1.0720300	0.1575800	0.6843900	0.7855200	0.2469900	0.8393100	1.3193600	-0.3401900	0.6722900	1.0381500	-0.4491500	0.6938900	0.7477500	-0.4769400	0.6929600	0.8055400	-0.1443700	0.6956800	0.8086000	-0.0348400	0.7588600	0.3415900	-0.0281900	0.6672000	-0.1802700	-0.0038000	0.6799400	0.8021400	-0.2626800	0.7374500	0.3429400	-0.2819900	0.6694000	-0.1914400	-0.3251500	0.8863600	-0.2306800	-0.3612100	0.8226900	-0.2326500	-0.4108800	0.6032500	-0.2406500	-0.3292800	0.8899900	-0.2153100	0.0390300	0.8182500	-0.2219500	0.0783600	0.6177900	-0.2313300	-0.0203300
114	1.8833333	0.8113100	1.3290400	-0.1487600	0.8012500	1.3421200	0.0355700	0.6793000	1.0718500	0.1574800	0.6746000	0.7907200	0.2442300	0.8294700	1.3265600	-0.3367200	0.6612300	1.0607200	-0.4457300	0.7019800	0.7597400	-0.4721500	0.7011300	0.8138700	-0.1493300	0.6959600	0.8190600	-0.0350400	0.7503400	0.3438100	-0.0241100	0.6675700	-0.1765500	-0.0045700	0.6880600	0.8118400	-0.2672900	0.7376300	0.3487100	-0.2827500	0.6692700	-0.1912900	-0.3250700	0.8706900	-0.2398900	-0.3615500	0.8132100	-0.2325500	-0.4074700	0.6038200	-0.2401000	-0.3296200	0.8902500	-0.2154800	0.0392400	0.8178300	-0.2217500	0.0785800	0.6178000	-0.2311700	-0.0204100
115	1.9000000	0.7927800	1.3445700	-0.1484100	0.7986200	1.3574600	0.0355900	0.6875200	1.0759300	0.1526300	0.6813700	0.7965900	0.2396800	0.8214400	1.3343800	-0.3406000	0.6622400	1.0639000	-0.4455600	0.6914000	0.7701200	-0.4684300	0.7025400	0.8174500	-0.1488500	0.7054600	0.8244900	-0.0313300	0.7500500	0.3433400	-0.0237900	0.6676800	-0.1766400	-0.0044800	0.6984200	0.8195400	-0.2707700	0.7387200	0.3531000	-0.2831500	0.6692600	-0.1879300	-0.3245900	0.8699500	-0.2368800	-0.3614500	0.8137200	-0.2325100	-0.4080000	0.6033300	-0.2404300	-0.3293200	0.8813800	-0.2212600	0.0367200	0.8181200	-0.2219400	0.0783600	0.6179000	-0.2313100	-0.0203700
116	1.9166667	0.7923600	1.3589000	-0.1486600	0.7917300	1.3648700	0.0396900	0.6877100	1.0757500	0.1524500	0.6817000	0.7998000	0.2398700	0.8200700	1.3450300	-0.3407800	0.6693800	1.0687800	-0.4414700	0.7091300	0.7754600	-0.4673800	0.7196200	0.8232600	-0.1498700	0.7156700	0.8209000	-0.0278300	0.7497900	0.3407900	-0.0237400	0.6577600	-0.1800000	-0.0078900	0.7243000	0.8254100	-0.2759200	0.7381900	0.3518400	-0.2830200	0.6689200	-0.1877100	-0.3244800	0.8706800	-0.2398900	-0.3616100	0.8131100	-0.2324600	-0.4074600	0.6036600	-0.2400200	-0.3296500	0.8814000	-0.2216000	0.0369000	0.8172700	-0.2249800	0.0792100	0.6177600	-0.2312700	-0.0203700
117	1.9333333	0.7839900	1.3626300	-0.1445100	0.7806400	1.3691100	0.0363300	0.6844700	1.0850200	0.1452200	0.6891600	0.8047900	0.2346800	0.8116700	1.3561900	-0.3370000	0.6615400	1.0679700	-0.4454400	0.7087500	0.7798300	-0.4674400	0.7302400	0.8308200	-0.1536500	0.7339500	0.8272500	-0.0283200	0.7497800	0.3404700	-0.0233400	0.6572600	-0.1836600	-0.0071400	0.7350000	0.8329400	-0.2793700	0.7295000	0.3544600	-0.2788800	0.6692100	-0.1843400	-0.3239700	0.8699600	-0.2368300	-0.3614400	0.8136500	-0.2324600	-0.4079800	0.6032000	-0.2371500	-0.3287000	0.8733900	-0.2244000	0.0408800	0.8096800	-0.2281800	0.0832900	0.6177300	-0.2314200	-0.0203300
118	1.9500000	0.7651900	1.3666000	-0.1521500	0.7721200	1.3695400	0.0330100	0.6847700	1.0846700	0.1449400	0.6883500	0.8038800	0.2272100	0.7940300	1.3594700	-0.3373000	0.6695500	1.0723600	-0.4415100	0.7094500	0.7793700	-0.4670500	0.7300900	0.8203300	-0.1540900	0.7427700	0.8275600	-0.0249400	0.7496600	0.3446900	-0.0233500	0.6571200	-0.1836200	-0.0072100	0.7343500	0.8262400	-0.2796200	0.7375500	0.3552000	-0.2824200	0.6691400	-0.1876600	-0.3244300	0.8706900	-0.2364800	-0.3610400	0.8217400	-0.2326200	-0.4103300	0.6130000	-0.2366400	-0.3257400	0.8735700	-0.2246900	0.0411500	0.8092000	-0.2282300	0.0836000	0.6176600	-0.2313500	-0.0203500
119	1.9666667	0.7645000	1.3670700	-0.1521000	0.7623800	1.3699200	0.0370900	0.6839600	1.0852400	0.1449700	0.7040400	0.8067000	0.2174500	0.7940300	1.3638100	-0.3372800	0.6701500	1.0759500	-0.4411600	0.7183500	0.7812900	-0.4708400	0.7296800	0.8142000	-0.1528000	0.7413500	0.8179500	-0.0242300	0.7494600	0.3443700	-0.0230100	0.6572000	-0.1837200	-0.0071200	0.7358100	0.8164800	-0.2782300	0.7286300	0.3481800	-0.2778900	0.6693500	-0.1878900	-0.3245400	0.8700200	-0.2368300	-0.3614300	0.8135700	-0.2359300	-0.4073200	0.6217800	-0.2337800	-0.3291800	0.8733900	-0.2272000	0.0415600	0.8096700	-0.2283300	0.0833500	0.6176500	-0.2314700	-0.0203200
120	1.9833333	0.7556800	1.3672200	-0.1558300	0.7633800	1.3699500	0.0371600	0.6842300	1.0849900	0.1446000	0.7048700	0.8058700	0.2174400	0.7849000	1.3636700	-0.3336300	0.6694100	1.0765000	-0.4412800	0.7177000	0.7804300	-0.4628400	0.7382500	0.8117100	-0.1496800	0.7427800	0.8171000	-0.0245200	0.7493500	0.3406900	-0.0238000	0.6575000	-0.1800200	-0.0078900	0.7432300	0.8129800	-0.2752100	0.7282400	0.3468300	-0.2777600	0.6690500	-0.1841400	-0.3251700	0.8707600	-0.2364100	-0.3609800	0.8132600	-0.2324600	-0.4075200	0.6222700	-0.2333300	-0.3296100	0.8735500	-0.2274600	0.0417000	0.8092200	-0.2283300	0.0835100	0.6090300	-0.2346400	-0.0161600
121	2.0000000	0.7470800	1.3712600	-0.1519700	0.7618200	1.3740400	0.0371500	0.6817200	1.0894900	0.1370900	0.7119900	0.8117100	0.2126600	0.7855200	1.3673500	-0.3336100	0.6700200	1.0760200	-0.4409900	0.7268600	0.7820600	-0.4666100	0.7390500	0.8151200	-0.1492500	0.7422600	0.8178400	-0.0242400	0.7491800	0.3402900	-0.0234400	0.6575500	-0.1799900	-0.0078100	0.7444300	0.8163100	-0.2746900	0.7280500	0.3566000	-0.2770900	0.6694600	-0.1805000	-0.3234200	0.8701100	-0.2367600	-0.3614600	0.8221900	-0.2291900	-0.4101500	0.6215900	-0.2304500	-0.3286100	0.8731200	-0.2272900	0.0414500	0.8174400	-0.2252600	0.0789800	0.6090200	-0.2347300	-0.0161600
122	2.0166667	0.7550800	1.3711100	-0.1560200	0.7627800	1.3741500	0.0369500	0.6825600	1.0852400	0.1367100	0.7206800	0.8078700	0.2080100	0.7759700	1.3707300	-0.3377200	0.6779200	1.0768000	-0.4368000	0.7274900	0.7816200	-0.4661200	0.7475400	0.8192700	-0.1540500	0.7509900	0.8220300	-0.0284900	0.7403100	0.3386100	-0.0270900	0.6574000	-0.1799000	-0.0079100	0.7524800	0.8244100	-0.2715400	0.7275500	0.3584800	-0.2773000	0.6687700	-0.1804700	-0.3245500	0.8707000	-0.2364200	-0.3610000	0.8128900	-0.2290700	-0.4068700	0.6220300	-0.2300300	-0.3289500	0.8734300	-0.2275100	0.0416500	0.8168200	-0.2280200	0.0798000	0.6175500	-0.2313800	-0.0203700
123	2.0333333	0.7549900	1.3744200	-0.1559400	0.7616000	1.3742100	0.0370400	0.6616100	1.0886200	0.1302700	0.7199800	0.8054700	0.2078000	0.7761300	1.3711700	-0.3377600	0.6874400	1.0731000	-0.4323000	0.7274800	0.7821000	-0.4664400	0.7480800	0.8267600	-0.1535200	0.7509700	0.8261100	-0.0285000	0.7400400	0.3453000	-0.0268000	0.6478600	-0.1833000	-0.0111500	0.7618900	0.8324500	-0.2750000	0.7362000	0.3586200	-0.2732400	0.6690400	-0.1771700	-0.3240500	0.8700600	-0.2367600	-0.3614600	0.8134100	-0.2290800	-0.4073600	0.6216000	-0.2304100	-0.3286100	0.8730600	-0.2273200	0.0414500	0.8006000	-0.2314200	0.0803100	0.6175400	-0.2314400	-0.0203600
124	2.0500000	0.7380400	1.3746400	-0.1557800	0.7535100	1.3744200	0.0337600	0.6597300	1.0841700	0.1223000	0.7115000	0.8034600	0.2050100	0.7666400	1.3710000	-0.3418400	0.6779800	1.0731400	-0.4366500	0.7452100	0.7838000	-0.4655900	0.7477900	0.8233800	-0.1538600	0.7604500	0.8262200	-0.0254000	0.7401700	0.3387400	-0.0271100	0.6477400	-0.1831000	-0.0112400	0.7613600	0.8255000	-0.2752200	0.7189500	0.3505100	-0.2725800	0.6687500	-0.1804400	-0.3246000	0.8706600	-0.2364300	-0.3609800	0.8129300	-0.2324400	-0.4061900	0.6220600	-0.2299800	-0.3290500	0.8733100	-0.2275600	0.0416700	0.8001400	-0.2313900	0.0805300	0.6175300	-0.2313600	-0.0204000
125	2.0666667	0.7376300	1.3748400	-0.1558200	0.7521400	1.3744800	0.0338100	0.6602800	1.0806100	0.1221500	0.7282600	0.8061900	0.2030600	0.7583100	1.3715100	-0.3460500	0.6783400	1.0692400	-0.4365100	0.7452400	0.7841400	-0.4659100	0.7483000	0.8267900	-0.1534000	0.7604300	0.8301300	-0.0253500	0.7402100	0.3414500	-0.0272900	0.6478900	-0.1831400	-0.0111800	0.7621800	0.8290500	-0.2746800	0.7193300	0.3517200	-0.2726200	0.6690800	-0.1772000	-0.3240500	0.8700300	-0.2368200	-0.3614100	0.8133800	-0.2325000	-0.4066800	0.6216500	-0.2304200	-0.3286000	0.8733100	-0.2234800	0.0420500	0.8174800	-0.2251200	0.0789200	0.6175800	-0.2314300	-0.0203800
126	2.0833333	0.7376100	1.3746800	-0.1559700	0.7530100	1.3744300	0.0335900	0.6509500	1.0754900	0.1184700	0.7194500	0.8043300	0.2002900	0.7577000	1.3711200	-0.3461100	0.6865000	1.0700000	-0.4323200	0.7549500	0.7849300	-0.4689400	0.7567700	0.8276400	-0.1504500	0.7611500	0.8294000	-0.0256100	0.7398700	0.3385600	-0.0271900	0.6478000	-0.1832400	-0.0113000	0.7620300	0.8290500	-0.2677200	0.7274000	0.3555400	-0.2767500	0.6690000	-0.1839200	-0.3239400	0.8791400	-0.2331800	-0.3644900	0.8306200	-0.2257700	-0.4133000	0.6219800	-0.2301000	-0.3289300	0.8728200	-0.2238700	0.0350000	0.8159600	-0.2280700	0.0725000	0.6175700	-0.2313400	-0.0204300
